<svg width="1692" height="517" viewBox="0 0 1692 517" fill="none" xmlns="http://www.w3.org/2000/svg">
<g clip-path="url(#clip0_42_59)">
<mask id="mask0_42_59" style="mask-type:luminance" maskUnits="userSpaceOnUse" x="0" y="0" width="1692" height="517">
<path d="M0 0H1692V517H0V0Z" fill="white"/>
</mask>
<g mask="url(#mask0_42_59)">
<path d="M-21.4102 552C40.7998 472.989 136.43 319.69 230.2 246.51C577.761 -24.1678 734.252 278.456 1296.48 42.1172C1652.93 -107.721 1702.04 281.304 1690.27 550.852L-21.4102 552Z" fill="#3B7DFF"/>
<path opacity="0.05" d="M243.484 724.434C202.084 538.723 339.943 476.457 471.511 380.167C727.059 193.543 841.767 370.311 1255.15 207.367C1668.54 44.423 1519.72 724.438 1519.72 724.438L243.484 724.434Z" fill="white"/>
<path d="M1656.32 724.433C1697.72 538.723 1559.86 476.456 1428.29 380.167C1172.74 193.544 1058.03 370.311 644.646 207.363C231.26 44.4152 380.076 724.433 380.076 724.433H1656.32Z" fill="url(#paint0_linear_42_59)"/>
</g>
</g>
<defs>
<linearGradient id="paint0_linear_42_59" x1="1008.9" y1="182.145" x2="1008.9" y2="724.433" gradientUnits="userSpaceOnUse">
<stop stop-color="#5790FF" stop-opacity="0.57"/>
<stop offset="0.781767" stop-color="#256FFF"/>
</linearGradient>
<clipPath id="clip0_42_59">
<rect width="1692" height="517" fill="white"/>
</clipPath>
</defs>
</svg>
