<svg width="370" height="160" viewBox="0 0 370 160" fill="none" xmlns="http://www.w3.org/2000/svg">
<g clip-path="url(#clip0_42_67)">
<path d="M5 10C7.76142 10 10 7.76142 10 5C10 2.23858 7.76142 0 5 0C2.23858 0 0 2.23858 0 5C0 7.76142 2.23858 10 5 10Z" fill="#00909E"/>
<path d="M35 10C37.7614 10 40 7.76142 40 5C40 2.23858 37.7614 0 35 0C32.2386 0 30 2.23858 30 5C30 7.76142 32.2386 10 35 10Z" fill="#00909E"/>
<path d="M65 10C67.7614 10 70 7.76142 70 5C70 2.23858 67.7614 0 65 0C62.2386 0 60 2.23858 60 5C60 7.76142 62.2386 10 65 10Z" fill="#00909E"/>
<path d="M95 10C97.7614 10 100 7.76142 100 5C100 2.23858 97.7614 0 95 0C92.2386 0 90 2.23858 90 5C90 7.76142 92.2386 10 95 10Z" fill="#00909E"/>
<path d="M125 10C127.761 10 130 7.76142 130 5C130 2.23858 127.761 0 125 0C122.239 0 120 2.23858 120 5C120 7.76142 122.239 10 125 10Z" fill="#00909E"/>
<path d="M155 10C157.761 10 160 7.76142 160 5C160 2.23858 157.761 0 155 0C152.239 0 150 2.23858 150 5C150 7.76142 152.239 10 155 10Z" fill="#00909E"/>
<path d="M185 10C187.761 10 190 7.76142 190 5C190 2.23858 187.761 0 185 0C182.239 0 180 2.23858 180 5C180 7.76142 182.239 10 185 10Z" fill="#00909E"/>
<path d="M215 10C217.761 10 220 7.76142 220 5C220 2.23858 217.761 0 215 0C212.239 0 210 2.23858 210 5C210 7.76142 212.239 10 215 10Z" fill="#00909E"/>
<path d="M245 10C247.761 10 250 7.76142 250 5C250 2.23858 247.761 0 245 0C242.239 0 240 2.23858 240 5C240 7.76142 242.239 10 245 10Z" fill="#00909E"/>
<path d="M275 10C277.761 10 280 7.76142 280 5C280 2.23858 277.761 0 275 0C272.239 0 270 2.23858 270 5C270 7.76142 272.239 10 275 10Z" fill="#00909E"/>
<path d="M305 10C307.761 10 310 7.76142 310 5C310 2.23858 307.761 0 305 0C302.239 0 300 2.23858 300 5C300 7.76142 302.239 10 305 10Z" fill="#00909E"/>
<path d="M335 10C337.761 10 340 7.76142 340 5C340 2.23858 337.761 0 335 0C332.239 0 330 2.23858 330 5C330 7.76142 332.239 10 335 10Z" fill="#00909E"/>
<path d="M365 10C367.761 10 370 7.76142 370 5C370 2.23858 367.761 0 365 0C362.239 0 360 2.23858 360 5C360 7.76142 362.239 10 365 10Z" fill="#00909E"/>
<path d="M5 40C7.76142 40 10 37.7614 10 35C10 32.2386 7.76142 30 5 30C2.23858 30 0 32.2386 0 35C0 37.7614 2.23858 40 5 40Z" fill="#00909E"/>
<path d="M35 40C37.7614 40 40 37.7614 40 35C40 32.2386 37.7614 30 35 30C32.2386 30 30 32.2386 30 35C30 37.7614 32.2386 40 35 40Z" fill="#00909E"/>
<path d="M65 40C67.7614 40 70 37.7614 70 35C70 32.2386 67.7614 30 65 30C62.2386 30 60 32.2386 60 35C60 37.7614 62.2386 40 65 40Z" fill="#00909E"/>
<path d="M95 40C97.7614 40 100 37.7614 100 35C100 32.2386 97.7614 30 95 30C92.2386 30 90 32.2386 90 35C90 37.7614 92.2386 40 95 40Z" fill="#00909E"/>
<path d="M125 40C127.761 40 130 37.7614 130 35C130 32.2386 127.761 30 125 30C122.239 30 120 32.2386 120 35C120 37.7614 122.239 40 125 40Z" fill="#00909E"/>
<path d="M155 40C157.761 40 160 37.7614 160 35C160 32.2386 157.761 30 155 30C152.239 30 150 32.2386 150 35C150 37.7614 152.239 40 155 40Z" fill="#00909E"/>
<path d="M185 40C187.761 40 190 37.7614 190 35C190 32.2386 187.761 30 185 30C182.239 30 180 32.2386 180 35C180 37.7614 182.239 40 185 40Z" fill="#00909E"/>
<path d="M215 40C217.761 40 220 37.7614 220 35C220 32.2386 217.761 30 215 30C212.239 30 210 32.2386 210 35C210 37.7614 212.239 40 215 40Z" fill="#00909E"/>
<path d="M245 40C247.761 40 250 37.7614 250 35C250 32.2386 247.761 30 245 30C242.239 30 240 32.2386 240 35C240 37.7614 242.239 40 245 40Z" fill="#00909E"/>
<path d="M275 40C277.761 40 280 37.7614 280 35C280 32.2386 277.761 30 275 30C272.239 30 270 32.2386 270 35C270 37.7614 272.239 40 275 40Z" fill="#00909E"/>
<path d="M305 40C307.761 40 310 37.7614 310 35C310 32.2386 307.761 30 305 30C302.239 30 300 32.2386 300 35C300 37.7614 302.239 40 305 40Z" fill="#00909E"/>
<path d="M335 40C337.761 40 340 37.7614 340 35C340 32.2386 337.761 30 335 30C332.239 30 330 32.2386 330 35C330 37.7614 332.239 40 335 40Z" fill="#00909E"/>
<path d="M365 40C367.761 40 370 37.7614 370 35C370 32.2386 367.761 30 365 30C362.239 30 360 32.2386 360 35C360 37.7614 362.239 40 365 40Z" fill="#00909E"/>
<path d="M5 73C7.76142 73 10 70.7614 10 68C10 65.2386 7.76142 63 5 63C2.23858 63 0 65.2386 0 68C0 70.7614 2.23858 73 5 73Z" fill="#3B7DFF"/>
<path d="M35 73C37.7614 73 40 70.7614 40 68C40 65.2386 37.7614 63 35 63C32.2386 63 30 65.2386 30 68C30 70.7614 32.2386 73 35 73Z" fill="#3B7DFF"/>
<path d="M65 73C67.7614 73 70 70.7614 70 68C70 65.2386 67.7614 63 65 63C62.2386 63 60 65.2386 60 68C60 70.7614 62.2386 73 65 73Z" fill="#3B7DFF"/>
<path d="M95 73C97.7614 73 100 70.7614 100 68C100 65.2386 97.7614 63 95 63C92.2386 63 90 65.2386 90 68C90 70.7614 92.2386 73 95 73Z" fill="#3B7DFF"/>
<path d="M125 73C127.761 73 130 70.7614 130 68C130 65.2386 127.761 63 125 63C122.239 63 120 65.2386 120 68C120 70.7614 122.239 73 125 73Z" fill="#3B7DFF"/>
<path d="M155 73C157.761 73 160 70.7614 160 68C160 65.2386 157.761 63 155 63C152.239 63 150 65.2386 150 68C150 70.7614 152.239 73 155 73Z" fill="#3B7DFF"/>
<path d="M185 73C187.761 73 190 70.7614 190 68C190 65.2386 187.761 63 185 63C182.239 63 180 65.2386 180 68C180 70.7614 182.239 73 185 73Z" fill="white"/>
<path d="M215 73C217.761 73 220 70.7614 220 68C220 65.2386 217.761 63 215 63C212.239 63 210 65.2386 210 68C210 70.7614 212.239 73 215 73Z" fill="white"/>
<path d="M245 73C247.761 73 250 70.7614 250 68C250 65.2386 247.761 63 245 63C242.239 63 240 65.2386 240 68C240 70.7614 242.239 73 245 73Z" fill="white"/>
<path d="M275 73C277.761 73 280 70.7614 280 68C280 65.2386 277.761 63 275 63C272.239 63 270 65.2386 270 68C270 70.7614 272.239 73 275 73Z" fill="white"/>
<path d="M305 73C307.761 73 310 70.7614 310 68C310 65.2386 307.761 63 305 63C302.239 63 300 65.2386 300 68C300 70.7614 302.239 73 305 73Z" fill="white"/>
<path d="M335 73C337.761 73 340 70.7614 340 68C340 65.2386 337.761 63 335 63C332.239 63 330 65.2386 330 68C330 70.7614 332.239 73 335 73Z" fill="white"/>
<path d="M365 73C367.761 73 370 70.7614 370 68C370 65.2386 367.761 63 365 63C362.239 63 360 65.2386 360 68C360 70.7614 362.239 73 365 73Z" fill="white"/>
<path d="M5 106C7.76142 106 10 103.761 10 101C10 98.2386 7.76142 96 5 96C2.23858 96 0 98.2386 0 101C0 103.761 2.23858 106 5 106Z" fill="#3B7DFF"/>
<path d="M35 106C37.7614 106 40 103.761 40 101C40 98.2386 37.7614 96 35 96C32.2386 96 30 98.2386 30 101C30 103.761 32.2386 106 35 106Z" fill="#3B7DFF"/>
<path d="M65 106C67.7614 106 70 103.761 70 101C70 98.2386 67.7614 96 65 96C62.2386 96 60 98.2386 60 101C60 103.761 62.2386 106 65 106Z" fill="#3B7DFF"/>
<path d="M95 106C97.7614 106 100 103.761 100 101C100 98.2386 97.7614 96 95 96C92.2386 96 90 98.2386 90 101C90 103.761 92.2386 106 95 106Z" fill="#3B7DFF"/>
<path d="M125 106C127.761 106 130 103.761 130 101C130 98.2386 127.761 96 125 96C122.239 96 120 98.2386 120 101C120 103.761 122.239 106 125 106Z" fill="#3B7DFF"/>
<path d="M155 106C157.761 106 160 103.761 160 101C160 98.2386 157.761 96 155 96C152.239 96 150 98.2386 150 101C150 103.761 152.239 106 155 106Z" fill="#3B7DFF"/>
<path d="M185 106C187.761 106 190 103.761 190 101C190 98.2386 187.761 96 185 96C182.239 96 180 98.2386 180 101C180 103.761 182.239 106 185 106Z" fill="white"/>
<path d="M215 106C217.761 106 220 103.761 220 101C220 98.2386 217.761 96 215 96C212.239 96 210 98.2386 210 101C210 103.761 212.239 106 215 106Z" fill="white"/>
<path d="M245 106C247.761 106 250 103.761 250 101C250 98.2386 247.761 96 245 96C242.239 96 240 98.2386 240 101C240 103.761 242.239 106 245 106Z" fill="white"/>
<path d="M275 106C277.761 106 280 103.761 280 101C280 98.2386 277.761 96 275 96C272.239 96 270 98.2386 270 101C270 103.761 272.239 106 275 106Z" fill="white"/>
<path d="M305 106C307.761 106 310 103.761 310 101C310 98.2386 307.761 96 305 96C302.239 96 300 98.2386 300 101C300 103.761 302.239 106 305 106Z" fill="white"/>
<path d="M335 106C337.761 106 340 103.761 340 101C340 98.2386 337.761 96 335 96C332.239 96 330 98.2386 330 101C330 103.761 332.239 106 335 106Z" fill="white"/>
<path d="M365 106C367.761 106 370 103.761 370 101C370 98.2386 367.761 96 365 96C362.239 96 360 98.2386 360 101C360 103.761 362.239 106 365 106Z" fill="white"/>
<path d="M5 139C7.76142 139 10 136.761 10 134C10 131.239 7.76142 129 5 129C2.23858 129 0 131.239 0 134C0 136.761 2.23858 139 5 139Z" fill="#3B7DFF"/>
<path d="M35 139C37.7614 139 40 136.761 40 134C40 131.239 37.7614 129 35 129C32.2386 129 30 131.239 30 134C30 136.761 32.2386 139 35 139Z" fill="#3B7DFF"/>
<path d="M65 139C67.7614 139 70 136.761 70 134C70 131.239 67.7614 129 65 129C62.2386 129 60 131.239 60 134C60 136.761 62.2386 139 65 139Z" fill="#3B7DFF"/>
<path d="M95 139C97.7614 139 100 136.761 100 134C100 131.239 97.7614 129 95 129C92.2386 129 90 131.239 90 134C90 136.761 92.2386 139 95 139Z" fill="#3B7DFF"/>
<path d="M125 139C127.761 139 130 136.761 130 134C130 131.239 127.761 129 125 129C122.239 129 120 131.239 120 134C120 136.761 122.239 139 125 139Z" fill="#3B7DFF"/>
<path d="M155 139C157.761 139 160 136.761 160 134C160 131.239 157.761 129 155 129C152.239 129 150 131.239 150 134C150 136.761 152.239 139 155 139Z" fill="#3B7DFF"/>
<path d="M185 139C187.761 139 190 136.761 190 134C190 131.239 187.761 129 185 129C182.239 129 180 131.239 180 134C180 136.761 182.239 139 185 139Z" fill="#3B7DFF"/>
<path d="M215 139C217.761 139 220 136.761 220 134C220 131.239 217.761 129 215 129C212.239 129 210 131.239 210 134C210 136.761 212.239 139 215 139Z" fill="white"/>
<path d="M245 139C247.761 139 250 136.761 250 134C250 131.239 247.761 129 245 129C242.239 129 240 131.239 240 134C240 136.761 242.239 139 245 139Z" fill="white"/>
<path d="M275 139C277.761 139 280 136.761 280 134C280 131.239 277.761 129 275 129C272.239 129 270 131.239 270 134C270 136.761 272.239 139 275 139Z" fill="white"/>
<path d="M305 139C307.761 139 310 136.761 310 134C310 131.239 307.761 129 305 129C302.239 129 300 131.239 300 134C300 136.761 302.239 139 305 139Z" fill="white"/>
<path d="M335 139C337.761 139 340 136.761 340 134C340 131.239 337.761 129 335 129C332.239 129 330 131.239 330 134C330 136.761 332.239 139 335 139Z" fill="white"/>
<path d="M365 139C367.761 139 370 136.761 370 134C370 131.239 367.761 129 365 129C362.239 129 360 131.239 360 134C360 136.761 362.239 139 365 139Z" fill="white"/>
</g>
<defs>
<clipPath id="clip0_42_67">
<rect width="370" height="160" fill="white"/>
</clipPath>
</defs>
</svg>
